<svg id="Camada_1" data-name="Camada 1" xmlns="http://www.w3.org/2000/svg" viewBox="0 0 250 250"><defs><style>.cls-1{fill:#a2aab6;}.cls-2{fill:#fff;}.cls-3{fill:#ea7603;}.cls-4{fill:#1d252e;}</style></defs><path class="cls-1" d="M147.67,148.44a45.34,45.34,0,1,1-45.34-45.34A45.34,45.34,0,0,1,147.67,148.44Z"/><path class="cls-2" d="M128.71,148.44a26.38,26.38,0,1,1-26.38-26.37A26.38,26.38,0,0,1,128.71,148.44Z"/><path class="cls-2" d="M109.54,148.38a7.21,7.21,0,1,0-7.21,7.21A7.22,7.22,0,0,0,109.54,148.38Z"/><polygon class="cls-3" points="170.99 78.25 165.26 61.05 197.74 28.56 203.47 45.76 170.99 78.25"/><polygon class="cls-3" points="170.99 78.25 188.19 83.98 220.67 51.49 203.47 45.76 170.99 78.25"/><path class="cls-4" d="M102.33,226.37a77.93,77.93,0,1,1,77.93-77.93A78,78,0,0,1,102.33,226.37Zm0-150.53a72.6,72.6,0,1,0,72.61,72.6A72.69,72.69,0,0,0,102.33,75.84Z"/><path class="cls-4" d="M90.45,60.21a5.91,5.91,0,0,1-5.91-5.93V38.86a6,6,0,0,1,5.92-5.94H114.2a5.92,5.92,0,0,1,5.93,5.94V54.29a6,6,0,0,1-5.94,5.92Zm-.59-5.32h25l0-16.64h-25Z"/><path class="cls-4" d="M41.18,75.8a4.68,4.68,0,0,1,1.26-6.52L54.66,61a4.72,4.72,0,0,1,6.52,1.25l4.56,6.7-4.41,3-4.2-6.19-11.19,7.6,4.2,6.19-4.4,3Z"/><rect class="cls-4" x="99.07" y="87.85" width="5.32" height="7.44"/><rect class="cls-4" x="70.72" y="95.77" width="5.32" height="7.44" transform="matrix(0.87, -0.5, 0.5, 0.87, -39.93, 50.06)"/><rect class="cls-4" x="50.12" y="116.8" width="5.32" height="7.45" transform="translate(-77.97 105.88) rotate(-59.96)"/><rect class="cls-4" x="41.74" y="146.37" width="7.44" height="5.32"/><rect class="cls-4" x="49.65" y="174.73" width="7.45" height="5.32" transform="translate(-81.53 50.43) rotate(-29.99)"/><rect class="cls-4" x="70.69" y="195.33" width="7.44" height="5.32" transform="translate(-134.23 163.28) rotate(-59.96)"/><rect class="cls-4" x="100.26" y="201.59" width="5.32" height="7.44"/><rect class="cls-4" x="128.62" y="193.68" width="5.32" height="7.44" transform="translate(-81 91.87) rotate(-29.94)"/><rect class="cls-4" x="149.22" y="172.64" width="5.32" height="7.44" transform="translate(-76.84 219.46) rotate(-59.94)"/><rect class="cls-4" x="156.54" y="144.13" width="5.32" height="7.44" transform="translate(11.19 306.9) rotate(-89.94)"/><rect class="cls-4" x="147.56" y="116.83" width="7.44" height="5.32" transform="translate(-39.46 91.5) rotate(-29.96)"/><rect class="cls-4" x="126.53" y="96.23" width="7.44" height="5.32" transform="translate(-20.55 162.17) rotate(-59.97)"/><path class="cls-4" d="M102.33,158.25a9.89,9.89,0,0,1-9.87-9.88,9.87,9.87,0,0,1,9.86-9.87,9.88,9.88,0,0,1,0,19.75Zm0-14.43a4.56,4.56,0,0,0-4.54,4.55,4.55,4.55,0,1,0,4.54-4.55Z"/><rect class="cls-4" x="99.67" y="58.63" width="5.32" height="13.04"/><path class="cls-4" d="M162.21,60.33l36.69-36.7,7.62,22.85L169.83,83.17Zm6.09,1.44,3.85,11.55,28.28-28.27-3.85-11.56Z"/><path class="cls-4" d="M166.06,79.41l36.7-36.69,22.84,7.61L188.91,87Zm9.86-2.33,11.55,3.85,28.27-28.27-11.55-3.85Z"/><path class="cls-4" d="M107.71,144.36a2.61,2.61,0,0,1-1.88-.78,2.66,2.66,0,0,1,0-3.76l95.46-95.46a2.66,2.66,0,0,1,3.76,0,2.66,2.66,0,0,1,0,3.76l-95.46,95.46A2.61,2.61,0,0,1,107.71,144.36Z"/></svg>