<svg id="Camada_1" data-name="Camada 1" xmlns="http://www.w3.org/2000/svg" viewBox="0 0 250 250"><defs><style>.cls-1{fill:#ea7603;}.cls-2{fill:#1d252e;}</style></defs><path class="cls-1" d="M207.16,117.34a38.15,38.15,0,0,0,.27-4.29,36.19,36.19,0,0,0-46.05-34.89A53.2,53.2,0,0,0,55.49,85.45c0,.11,0,.23,0,.35a32.46,32.46,0,0,0,3.71,64.71h146a.31.31,0,0,1,0-.08c.47,0,.93.08,1.4.08a16.59,16.59,0,0,0,.51-33.17Z"/><polygon class="cls-2" points="104.37 83.87 89.97 98.26 86.31 94.6 104.37 76.56 122.43 94.6 118.78 98.26 104.37 83.87"/><rect class="cls-2" x="101.79" y="83.19" width="5.17" height="59.68"/><polygon class="cls-2" points="116.61 206.7 120.26 203.04 134.67 217.44 149.07 203.04 152.73 206.7 134.67 224.74 116.61 206.7"/><rect class="cls-2" x="132.08" y="158.43" width="5.17" height="59.68"/></svg>