<svg id="Camada_1" data-name="Camada 1" xmlns="http://www.w3.org/2000/svg" viewBox="0 0 250 250"><defs><style>.cls-1{fill:#ea7603;}.cls-2{fill:#fff;}.cls-3{fill:#a2aab6;}.cls-4{fill:#1d252e;}</style></defs><rect class="cls-1" x="36.67" y="62.78" width="176.67" height="84.76"/><path class="cls-2" d="M188.46,161.55A63.46,63.46,0,1,1,125,98.09,63.46,63.46,0,0,1,188.46,161.55Z"/><path class="cls-3" d="M125,110.87l-.7,0v50.34h51.37A50.67,50.67,0,0,0,125,110.87Z"/><path class="cls-2" d="M137.77,82.17A2.76,2.76,0,0,1,135,84.92H115a2.73,2.73,0,0,1-2.74-2.75v-13A2.76,2.76,0,0,1,115,66.4h20a2.74,2.74,0,0,1,2.75,2.76Z"/><path class="cls-2" d="M78.94,104.39l-3.8-5.58a1.58,1.58,0,0,1,.62-2.14l10.31-7a1.6,1.6,0,0,1,2.22.22l3.79,5.58"/><path class="cls-2" d="M171.06,104.54,174.7,99a1.71,1.71,0,0,0-.46-2.37l-10.31-7a1.72,1.72,0,0,0-2.38.46l-3.64,5.49"/><path class="cls-2" d="M158.11,161.55A33.11,33.11,0,1,1,125,128.44,33.11,33.11,0,0,1,158.11,161.55Z"/><line class="cls-2" x1="100.99" y1="120.87" x2="104.96" y2="127.75"/><line class="cls-2" x1="83.87" y1="138.32" x2="90.75" y2="142.3"/><line class="cls-2" x1="84.32" y1="185.56" x2="91.2" y2="181.59"/><line class="cls-2" x1="101.77" y1="202.68" x2="105.75" y2="195.8"/><line class="cls-2" x1="125.45" y1="208.78" x2="125.45" y2="200.84"/><line class="cls-2" x1="149.01" y1="202.23" x2="145.04" y2="195.35"/><line class="cls-2" x1="166.13" y1="184.78" x2="159.25" y2="180.8"/><path class="cls-2" d="M131.08,161.5a6.08,6.08,0,1,0-6.08,6.07A6.09,6.09,0,0,0,131.08,161.5Z"/><path class="cls-4" d="M21.83,51.07V22.41H228.17V51.07ZM27,45.9H223V27.58H27Z"/><rect class="cls-4" x="35.1" y="33.99" width="4.64" height="5.17"/><rect class="cls-4" x="48.32" y="33.99" width="4.64" height="5.17"/><rect class="cls-4" x="61.54" y="33.99" width="4.64" height="5.17"/><polygon class="cls-4" points="203.86 164.42 203.86 159.25 223 159.25 223 51.07 27 51.07 27 159.25 46.14 159.25 46.14 164.42 21.83 164.42 21.83 45.9 228.17 45.9 228.17 164.42 203.86 164.42"/><path class="cls-4" d="M125,227.59a66,66,0,1,1,66-66A66.11,66.11,0,0,1,125,227.59Zm0-126.91a60.87,60.87,0,1,0,60.87,60.87A60.93,60.93,0,0,0,125,100.68Z"/><path class="cls-4" d="M115,87.5a5.31,5.31,0,0,1-5.33-5.34v-13A5.36,5.36,0,0,1,115,63.81h20a5.31,5.31,0,0,1,5.33,5.35v13A5.36,5.36,0,0,1,135,87.5Zm-.15-5.17h20.35V69H114.82Z"/><path class="cls-4" d="M73.17,100.5a4.3,4.3,0,0,1,1.13-6l10.32-7a4.28,4.28,0,0,1,2.4-.74,4.56,4.56,0,0,1,.82.08,4.26,4.26,0,0,1,2.75,1.81l3.7,5.45L90,97,86.8,92.29l-8.87,6,3.22,4.75L76.88,106Z"/><path class="cls-4" d="M168.85,103.06l3.21-4.74-8.86-6L160,97l-4.28-2.91,3.71-5.45a4.32,4.32,0,0,1,6-1.15l10.31,7a4.29,4.29,0,0,1,1.14,6L173.12,106Z"/><rect class="cls-4" x="121.96" y="115.82" width="5.17" height="4.94"/><rect class="cls-4" x="100.39" y="121.84" width="5.17" height="4.94" transform="translate(-48.35 68.11) rotate(-29.99)"/><rect class="cls-4" x="84.72" y="137.84" width="5.17" height="4.95" transform="translate(-77.86 145.59) rotate(-59.94)"/><rect class="cls-4" x="79.27" y="159.42" width="4.94" height="5.17"/><rect class="cls-4" x="85.28" y="180.99" width="4.95" height="5.17" transform="translate(-80 68.44) rotate(-29.99)"/><rect class="cls-4" x="101.28" y="196.65" width="4.94" height="5.17" transform="translate(-120.66 189.29) rotate(-59.95)"/><rect class="cls-4" x="122.86" y="202.34" width="5.17" height="4.94"/><rect class="cls-4" x="144.44" y="196.32" width="5.17" height="4.95" transform="translate(-79.66 100.05) rotate(-29.98)"/><rect class="cls-4" x="160.1" y="180.32" width="5.17" height="4.94" transform="translate(-77.01 232.02) rotate(-59.94)"/><rect class="cls-4" x="165.67" y="158.63" width="5.17" height="4.94" transform="translate(6.87 329.08) rotate(-89.9)"/><rect class="cls-4" x="159.76" y="136.94" width="4.94" height="5.17" transform="translate(-48 99.68) rotate(-29.96)"/><rect class="cls-4" x="143.77" y="121.27" width="4.94" height="5.17" transform="matrix(0.5, -0.87, 0.87, 0.5, -34.19, 188.45)"/><rect class="cls-4" x="125.4" y="143.51" width="27.93" height="5.17" transform="translate(-62.52 143.26) rotate(-45.55)"/><path class="cls-4" d="M125,170.16a8.67,8.67,0,1,1,8.66-8.67A8.68,8.68,0,0,1,125,170.16ZM125,158a3.5,3.5,0,1,0,3.51,3.5A3.53,3.53,0,0,0,125,158Z"/><rect class="cls-4" x="122.42" y="86.06" width="5.17" height="6.58"/></svg>