<svg id="Camada_1" data-name="Camada 1" xmlns="http://www.w3.org/2000/svg" viewBox="0 0 250 250"><defs><style>.cls-1{fill:#a2aab6;}.cls-2{fill:#ea7603;}.cls-3{fill:#fff;}.cls-4{fill:#1d252e;}.cls-5{fill:none;stroke:#1d252e;stroke-miterlimit:10;stroke-width:4.6px;}</style></defs><path class="cls-1" d="M148.72,183.47h-67a39.08,39.08,0,0,0-39.08,39.08H187.8A39.07,39.07,0,0,0,148.72,183.47Z"/><path class="cls-2" d="M48.18,193.12a44.55,44.55,0,0,1,33.55-15.24h67a44.53,44.53,0,0,1,33.56,15.25,30.21,30.21,0,0,0,11-20.84,22.09,22.09,0,0,1-16.6-21.38v0c0-.31,0-.62,0-.93h0V105.85h0c0-.13,0-.27,0-.4a61.44,61.44,0,1,0-122.87,0c0,.13,0,.27,0,.4h0V150h0c0,.11,0,.22,0,.33v1.25a22.1,22.1,0,0,1-16.58,20.75A30.2,30.2,0,0,0,48.18,193.12Z"/><path class="cls-3" d="M115.23,197.42a19.56,19.56,0,0,1-19.53-18.9l10.09-20.18h18.88l10.09,20.18A19.56,19.56,0,0,1,115.23,197.42Z"/><path class="cls-4" d="M115.23,199.91a22,22,0,0,1-22-22l11-22.1h22l11,22.1A22.06,22.06,0,0,1,115.23,199.91Zm-17-20.86v.08a17.05,17.05,0,0,0,34,0v-.08l-9.11-18.22H107.32Z"/><path class="cls-3" d="M156.48,85.39V102.1H103.72L92.41,80.18H81.69a8.35,8.35,0,0,0-8.34,8.33v39.13a41.88,41.88,0,0,0,83.75,0V88.51A8.35,8.35,0,0,0,156.48,85.39Z"/><path class="cls-4" d="M115.23,155.25a22.05,22.05,0,0,1-22-21.73h44.06A22.07,22.07,0,0,1,115.23,155.25ZM99.15,138.9a17,17,0,0,0,32.15,0l.14-.4H99Z"/><path class="cls-4" d="M101.56,121.75a5.88,5.88,0,0,0-11.75,0h-5a10.87,10.87,0,0,1,21.73,0Z"/><path class="cls-4" d="M140.64,121.75a5.88,5.88,0,0,0-11.75,0h-5a10.86,10.86,0,0,1,21.72,0Z"/><path class="cls-4" d="M115.23,172a44.41,44.41,0,0,1-44.37-44.36V88.51A10.84,10.84,0,0,1,81.69,77.69H98.18v7.17A15.18,15.18,0,0,0,113.34,100h33a8.22,8.22,0,0,0,8.22-8.21V88.56a5.89,5.89,0,1,0-11.77,0v5.28h-5V88.56a10.87,10.87,0,0,1,21.73,0v39.12A44.41,44.41,0,0,1,115.23,172ZM81.69,82.67a5.85,5.85,0,0,0-5.84,5.84v39.13a39.38,39.38,0,0,0,78.76,0V102.11l-.48.34a13.08,13.08,0,0,1-7.74,2.56h-33A20.17,20.17,0,0,1,93.19,84.86V82.67Z"/><polygon class="cls-5" points="192.29 27.45 197.13 42.34 212.78 42.34 200.12 51.53 204.95 66.41 192.29 57.22 179.63 66.41 184.47 51.53 171.81 42.34 187.46 42.34 192.29 27.45"/></svg>